<?xml version="1.0" encoding="UTF-8"?>
<svg width="32" height="32" viewBox="0 0 32 32" fill="none" xmlns="http://www.w3.org/2000/svg">
  <rect width="32" height="32" rx="8" fill="#0F172A"/>
  <path d="M9.33333 12C9.33333 10.5272 10.5272 9.33333 12 9.33333H20C21.4728 9.33333 22.6667 10.5272 22.6667 12V20C22.6667 21.4728 21.4728 22.6667 20 22.6667H12C10.5272 22.6667 9.33333 21.4728 9.33333 20V12Z" fill="#3B82F6"/>
  <path d="M16 11.3333C13.4227 11.3333 11.3333 13.4227 11.3333 16C11.3333 18.5773 13.4227 20.6667 16 20.6667C18.5773 20.6667 20.6667 18.5773 20.6667 16C20.6667 13.4227 18.5773 11.3333 16 11.3333ZM17.6667 17L16.3333 16.1667V14C16.3333 13.8167 16.1833 13.6667 16 13.6667C15.8167 13.6667 15.6667 13.8167 15.6667 14V16.3333C15.6667 16.45 15.7167 16.5667 15.8333 16.6333L17.3333 17.5667C17.3833 17.6 17.45 17.6167 17.5 17.6167C17.6333 17.6167 17.75 17.55 17.8167 17.4333C17.9167 17.2667 17.8333 17.0333 17.6667 17Z" fill="white"/>
  <path d="M16 8C11.5817 8 8 11.5817 8 16C8 20.4183 11.5817 24 16 24C20.4183 24 24 20.4183 24 16C24 11.5817 20.4183 8 16 8ZM16 22.6667C12.318 22.6667 9.33333 19.682 9.33333 16C9.33333 12.318 12.318 9.33333 16 9.33333C19.682 9.33333 22.6667 12.318 22.6667 16C22.6667 19.682 19.682 22.6667 16 22.6667Z" fill="white"/>
</svg>
