<?xml version="1.0" encoding="UTF-8"?>
<svg width="120" height="120" viewBox="0 0 120 120" fill="none" xmlns="http://www.w3.org/2000/svg">
  <rect width="120" height="120" rx="20" fill="#0F172A"/>
  <path d="M35 45C35 39.4772 39.4772 35 45 35H75C80.5228 35 85 39.4772 85 45V75C85 80.5228 80.5228 85 75 85H45C39.4772 85 35 80.5228 35 75V45Z" fill="#3B82F6"/>
  <path d="M60 42.5C50.335 42.5 42.5 50.335 42.5 60C42.5 69.665 50.335 77.5 60 77.5C69.665 77.5 77.5 69.665 77.5 60C77.5 50.335 69.665 42.5 60 42.5ZM66.25 63.75L61.25 60.625V52.5C61.25 51.8125 60.6875 51.25 60 51.25C59.3125 51.25 58.75 51.8125 58.75 52.5V61.25C58.75 61.6875 58.9375 62.125 59.375 62.375L65 65.875C65.1875 66 65.4375 66.0625 65.625 66.0625C66.125 66.0625 66.5625 65.8125 66.8125 65.375C67.1875 64.75 66.9375 63.9375 66.25 63.75Z" fill="white"/>
  <path d="M60 30C43.4315 30 30 43.4315 30 60C30 76.5685 43.4315 90 60 90C76.5685 90 90 76.5685 90 60C90 43.4315 76.5685 30 60 30ZM60 85C46.1929 85 35 73.8071 35 60C35 46.1929 46.1929 35 60 35C73.8071 35 85 46.1929 85 60C85 73.8071 73.8071 85 60 85Z" fill="white"/>
</svg>
